<svg width="212" height="214" viewBox="0 0 212 214" fill="none" xmlns="http://www.w3.org/2000/svg">
<path d="M70.6306 212.677L116.832 212.677C155.84 212.677 187.462 181.055 187.462 142.047L187.462 95.8459C187.462 56.8376 155.84 25.2153 116.832 25.2153L70.6306 25.2153C31.6223 25.2153 -7.62939e-05 56.8376 -7.62939e-05 95.8459L-7.62939e-05 142.047C-7.62939e-05 181.055 31.6223 212.677 70.6306 212.677Z" fill="#E5E7FB" fill-opacity="0.5"/>
<mask id="mask0_108_258" style="mask-type:alpha" maskUnits="userSpaceOnUse" x="0" y="0" width="212" height="214">
<path fill-rule="evenodd" clip-rule="evenodd" d="M132.212 213.002H80.0218C77.5857 213.002 75.1751 212.892 72.7946 212.678H70.6306C31.6224 212.678 0 181.055 0 142.047L0 95.8459C0 93.8949 0.0791053 91.9624 0.234283 90.0513V80.462C0.234283 36.209 35.9564 0.334961 80.0218 0.334961H132.212C176.278 0.334961 212 36.209 212 80.462V132.875C212 177.128 176.278 213.002 132.212 213.002Z" fill="#E5E7FB"/>
</mask>
<g mask="url(#mask0_108_258)">
<path d="M182.141 118.492C198.472 113.899 207.987 96.9377 203.394 80.6074C198.801 64.2771 181.839 54.7621 165.509 59.355C149.179 63.9479 139.664 80.9095 144.257 97.2398C148.85 113.57 165.811 123.085 182.141 118.492Z" fill="#35AF72"/>
<path d="M179.13 118.829C195.51 114.237 205.066 97.2371 200.474 80.8578C195.882 64.4785 178.882 54.9227 162.503 59.5144C146.123 64.1061 136.568 81.1064 141.159 97.4857C145.751 113.865 162.751 123.421 179.13 118.829Z" fill="#56CC95"/>
<path d="M177.397 112.598C172.764 113.894 167.851 113.787 163.278 112.291C158.706 110.796 154.68 107.978 151.709 104.194C148.737 100.411 146.954 95.8318 146.585 91.0352C146.215 86.2388 147.276 81.4404 149.633 77.2466C151.99 73.0528 155.537 69.6518 159.826 67.4735C164.116 65.2951 168.954 64.4372 173.731 65.0082C178.508 65.5791 183.008 67.5533 186.663 70.6812C190.318 73.8091 192.964 77.9503 194.266 82.5814C195.131 85.66 195.382 88.879 195.002 92.0543C194.623 95.2297 193.621 98.299 192.054 101.087C190.487 103.875 188.386 106.326 185.871 108.302C183.356 110.277 180.476 111.737 177.397 112.598Z" fill="#FFF8FF"/>
<path d="M175.649 106.38C172.242 107.336 168.629 107.26 165.265 106.163C161.902 105.065 158.94 102.994 156.753 100.213C154.567 97.4313 153.254 94.0639 152.981 90.5364C152.709 87.0089 153.488 83.4798 155.222 80.3954C156.955 77.311 159.564 74.8098 162.718 73.2082C165.873 71.6067 169.432 70.9766 172.945 71.3977C176.458 71.8188 179.767 73.2722 182.453 75.574C185.14 77.8759 187.084 80.9228 188.039 84.3295C189.315 88.8965 188.726 93.783 186.403 97.9169C184.08 102.051 180.213 105.094 175.649 106.38Z" fill="#56CC95"/>
<path d="M173.909 100.162C171.732 100.774 169.421 100.726 167.271 100.024C165.121 99.322 163.227 97.9983 161.829 96.22C160.431 94.4417 159.592 92.2887 159.417 90.0334C159.243 87.7782 159.742 85.5219 160.85 83.55C161.958 81.5781 163.626 79.9791 165.643 78.9554C167.66 77.9317 169.936 77.5292 172.182 77.7988C174.428 78.0684 176.543 78.9981 178.261 80.4701C179.978 81.9422 181.22 83.8905 181.83 86.0687C182.645 88.9879 182.269 92.1113 180.784 94.7535C179.299 97.3957 176.827 99.3409 173.909 100.162Z" fill="#FFF8FF"/>
<path d="M172.159 93.9611C174.804 93.2196 176.348 90.4741 175.606 87.8288C174.864 85.1836 172.119 83.6404 169.474 84.3819C166.828 85.1235 165.285 87.869 166.027 90.5142C166.768 93.1594 169.514 94.7027 172.159 93.9611Z" fill="#56CC95"/>
<path d="M149.498 139.812C149.498 139.812 151.102 132.829 157.608 133.18C164.114 133.531 165.655 133.531 168.422 133.18C171.188 132.829 175.559 129.458 176.784 130.477C178.01 131.495 177.325 133.802 175.045 135.829C173.179 137.286 171.092 138.436 168.863 139.236L177.145 140.659C177.145 140.659 184.606 136.676 186.354 137.379C186.861 137.601 187.287 137.974 187.576 138.446C187.864 138.918 188.001 139.467 187.967 140.02C187.967 140.02 191.058 138.632 191.941 139.857C192.824 141.083 193.031 141.903 192.157 142.561C192.157 142.561 192.734 141.993 194.338 142.471C195.708 142.876 195.591 145.408 194.338 146.075L193.915 146.318C193.915 146.318 182.2 153.077 181.821 153.122C179.749 153.401 167.106 152.861 160.591 152.554C159.415 152.5 158.247 152.759 157.203 153.303C156.16 153.848 155.28 154.659 154.652 155.654L144.163 172.271L132.34 158.727L149.498 139.812Z" fill="#FFBF9C"/>
<path d="M170.773 143.633C171.402 143.823 172.043 143.964 172.693 144.057C173.9 144.282 175.613 144.588 177.604 144.958H177.658H177.703L180.352 143.741L186.66 140.813L188.571 139.911C188.81 139.813 189.037 139.686 189.247 139.533C188.991 139.587 188.743 139.672 188.508 139.785L186.552 140.587L183.669 141.822L180.172 143.417L177.523 144.651H177.622C175.631 144.336 173.918 144.075 172.693 143.903C172.061 143.766 171.419 143.675 170.773 143.633Z" fill="#F89A71"/>
<path d="M173.675 146.715C175.6 147.448 177.252 148.757 178.406 150.464C178.024 149.473 177.384 148.603 176.552 147.944C175.72 147.284 174.727 146.86 173.675 146.715Z" fill="#F89A71"/>
<path d="M160.248 136.956C160.248 136.956 160.176 137.379 159.942 138.073C159.63 139.017 159.081 139.864 158.347 140.533L158.104 140.75L158.419 140.813C161.275 141.354 163.938 142.638 166.142 144.534C167.178 145.435 167.728 146.075 167.773 146.03C167.685 145.848 167.569 145.681 167.43 145.535C167.081 145.114 166.705 144.716 166.304 144.345C164.987 143.115 163.461 142.13 161.798 141.434C160.736 141.012 159.629 140.71 158.5 140.533L158.581 140.813C159.339 140.097 159.879 139.182 160.14 138.172C160.268 137.78 160.305 137.364 160.248 136.956Z" fill="#F89A71"/>
<path d="M179.019 148.103C179.689 147.883 180.345 147.621 180.983 147.319C182.182 146.823 183.867 146.183 185.741 145.516C187.616 144.85 189.346 144.219 190.508 143.714C191.171 143.479 191.808 143.177 192.41 142.813C191.728 142.998 191.059 143.23 190.409 143.507L185.615 145.219C183.741 145.895 182.065 146.571 180.875 147.129C180.223 147.386 179.601 147.713 179.019 148.103Z" fill="#F89A71"/>
<path d="M176.036 147.823C177.618 148.549 179.397 148.727 181.091 148.328C181.091 148.22 179.947 148.328 178.559 148.148C177.172 147.967 176.072 147.715 176.036 147.823Z" fill="#F89A71"/>
<path d="M110.758 107.687C110.758 107.687 121.229 113.716 123.428 132.126C124.573 141.723 128.754 159.574 128.754 159.574L137.351 149.905L150.354 164.792C150.354 164.792 136.305 194.781 128.33 202.955C120.355 211.128 104.658 213.651 104.658 213.651L101.495 163.539L110.758 107.687Z" fill="#56CC95"/>
<path d="M31.3144 99.4055L55.5188 95.1702L86.3735 96.7021C86.3735 96.7021 112.065 107.308 110.758 107.687L115.768 157.249L103.36 181.219L106.424 232.259H21.2758L25.7184 196.764L31.2874 153.996L20.7171 187.14L19.1582 232.322H-4.58661C-7.09175 212.633 -7.87573 185.319 -7.87573 185.319L11.4715 122.123C14.1214 113.321 19.9642 105.826 27.8541 101.109C28.9507 100.432 30.1094 99.8617 31.3144 99.4055Z" fill="#56CC95"/>
<path d="M111.074 132.711C111.045 132.793 111.023 132.878 111.01 132.964L110.875 133.712L110.38 136.586C109.956 139.082 109.352 142.696 108.667 147.166C107.983 151.635 107.199 156.97 106.46 162.917C105.721 168.865 105.018 175.407 104.657 182.31L104.549 184.184C104.91 197.575 105.324 209.605 105.694 218.283C105.883 222.626 106.054 226.123 106.207 228.547L106.397 231.331L106.46 232.052C106.452 232.133 106.452 232.214 106.46 232.295C106.467 232.214 106.467 232.133 106.46 232.052V231.331L106.343 228.547L105.937 218.283C105.622 209.605 105.252 197.557 104.901 184.184L105.009 182.31C105.405 175.425 106.099 168.874 106.811 162.944C107.523 157.015 108.289 151.671 108.947 147.193L110.551 136.595L110.983 133.712L111.083 132.964C111.087 132.88 111.084 132.795 111.074 132.711Z" fill="#1B2E35"/>
<path d="M36.7662 135.397C36.8086 135.296 36.8359 135.19 36.8473 135.081L37.0005 134.18L37.0996 133.513C37.0996 133.27 37.0996 133 37.1536 132.711C37.2112 132.061 37.2322 131.408 37.2167 130.756L37.1807 129.593C37.1807 129.197 37.1086 128.791 37.0725 128.368C36.9823 127.46 36.8439 126.558 36.658 125.664C36.2128 123.633 35.5544 121.655 34.6936 119.762C33.7958 117.886 32.7024 116.11 31.4315 114.463C30.8672 113.75 30.2656 113.067 29.6292 112.418C29.3318 112.12 29.0525 111.805 28.7281 111.517L27.872 110.769C27.3842 110.338 26.8728 109.935 26.3401 109.561C26.1058 109.39 25.8985 109.228 25.6913 109.093L25.1145 108.741L24.3125 108.273C24.224 108.211 24.1268 108.162 24.0242 108.128C24.0979 108.209 24.1829 108.279 24.2765 108.336L25.0424 108.867L25.6011 109.237C25.7994 109.381 26.0067 109.552 26.2319 109.723C26.7481 110.11 27.2443 110.522 27.7188 110.958L28.5478 111.715C28.8362 111.976 29.0975 112.292 29.3949 112.616C29.9987 113.211 30.5484 113.923 31.1431 114.653C32.3835 116.292 33.4552 118.052 34.3421 119.906C35.194 121.775 35.8552 123.726 36.3156 125.728C36.4868 126.629 36.6851 127.53 36.7571 128.377C36.7571 128.791 36.8653 129.197 36.8833 129.593L36.9284 130.72C36.9611 131.365 36.9611 132.012 36.9284 132.657C36.9284 132.946 36.9284 133.207 36.9284 133.45L36.8563 134.117L36.7752 135.018C36.7512 135.143 36.7481 135.271 36.7662 135.397Z" fill="#1B2E35"/>
<path d="M20.717 187.14C20.7854 187.011 20.8398 186.875 20.8792 186.734L21.2667 185.545L22.6455 181.147C23.8079 177.434 25.4119 172.298 27.2502 166.648C29.0885 160.998 30.7917 155.888 32.1704 152.23C32.8823 150.428 33.5762 149.004 33.9727 148.003C34.1889 147.499 34.3512 147.102 34.4503 146.841C34.5102 146.708 34.5555 146.569 34.5854 146.427C34.5025 146.548 34.433 146.678 34.3782 146.814L33.8375 147.949C33.405 148.95 32.675 150.319 31.9271 152.122C30.4853 155.726 28.7461 160.845 26.9078 166.54C25.0695 172.235 23.5105 177.353 22.4022 181.075C21.8525 182.94 21.4199 184.463 21.1316 185.509L20.8072 186.725C20.7624 186.86 20.7322 186.999 20.717 187.14Z" fill="#1B2E35"/>
<path d="M2.86572 185.572C2.86572 185.635 3.76685 185.364 5.27174 185.139C9.1662 184.52 13.1551 184.943 16.8332 186.365C18.239 186.914 19.059 187.365 19.0951 187.266C18.9301 187.117 18.7451 186.993 18.5454 186.896C18.0254 186.592 17.4867 186.321 16.9324 186.085C13.2445 184.492 9.16248 184.046 5.21767 184.806C4.6262 184.916 4.0423 185.063 3.46948 185.247C3.25352 185.325 3.05012 185.435 2.86572 185.572Z" fill="#1B2E35"/>
<path d="M110.028 182.066C110.263 181.763 110.477 181.444 110.668 181.111C111.092 180.507 111.704 179.633 112.542 178.606C114.183 176.533 116.598 173.785 119.274 170.757C121.95 167.729 124.383 164.99 126.095 162.962C126.952 161.953 127.636 161.16 128.096 160.538C128.348 160.257 128.577 159.955 128.781 159.637C128.494 159.895 128.229 160.175 127.988 160.475L125.906 162.818L119.013 170.541C116.309 173.569 113.948 176.353 112.353 178.471C111.708 179.301 111.106 180.164 110.551 181.057C110.362 181.372 110.236 181.643 110.145 181.814C110.094 181.892 110.054 181.977 110.028 182.066Z" fill="#1B2E35"/>
<g opacity="0.2">
<path opacity="0.2" d="M105.297 213.651C104.91 199.774 104.189 186.986 105.441 173.28C106 185.437 110.434 199.665 114.885 210.993L105.297 213.651Z" fill="black"/>
</g>
<g opacity="0.2">
<path opacity="0.2" d="M31.2872 154.032C31.2872 154.032 35.2342 145.201 34.9729 145.201C35.2351 162.584 32.1259 179.852 25.8174 196.052L31.2872 154.032Z" fill="black"/>
</g>
<path d="M42.155 200.891C42.3051 201.006 42.4649 201.109 42.6326 201.197L44.0204 201.999C45.2189 202.711 46.9581 203.738 49.0847 205.036C51.2114 206.333 53.7436 207.892 56.6182 209.541C59.7273 211.332 62.9759 212.869 66.3324 214.137C69.6913 215.418 73.2381 216.136 76.8305 216.264C78.4106 216.279 79.984 216.057 81.4984 215.606C82.8077 215.198 84.0298 214.55 85.1029 213.696C86.6911 212.468 87.8362 210.757 88.365 208.821C88.4993 208.296 88.5718 207.758 88.5813 207.217C88.5972 207.031 88.5972 206.844 88.5813 206.658C88.5506 207.376 88.4449 208.089 88.2659 208.785C87.6963 210.664 86.5446 212.314 84.9768 213.497C83.8973 214.316 82.6751 214.928 81.3722 215.3C79.8849 215.729 78.3423 215.935 76.7945 215.912C73.2315 215.762 69.7164 215.035 66.3864 213.759C63.0484 212.51 59.8126 211.004 56.7083 209.253C53.8337 207.649 51.3015 206.108 49.1478 204.838C46.9941 203.567 45.291 202.585 44.0834 201.882L42.6597 201.134C42.4987 201.039 42.3299 200.957 42.155 200.891Z" fill="#1B2E35"/>
<path d="M42.2542 180.768C42.3104 181.174 42.3978 181.575 42.5155 181.967C42.6244 182.433 42.7568 182.893 42.912 183.346C43.0922 183.877 43.2724 184.49 43.5428 185.148C43.8131 185.806 44.0834 186.527 44.4439 187.274C44.8044 188.022 45.2099 188.815 45.6514 189.635C47.6595 193.173 50.2664 196.335 53.3561 198.98C54.077 199.575 54.7528 200.152 55.4377 200.629C56.1226 201.107 56.7443 201.53 57.3481 201.936C57.9518 202.341 58.5015 202.63 58.9881 202.909C59.4033 203.15 59.8304 203.369 60.2678 203.567C60.627 203.76 61.0006 203.926 61.3852 204.063C61.0497 203.832 60.6973 203.627 60.3308 203.45C59.9794 203.27 59.5649 203.035 59.0873 202.738C58.6097 202.441 58.06 202.134 57.4833 201.729C56.9065 201.323 56.2667 200.909 55.6179 200.395C54.9691 199.881 54.2842 199.332 53.5814 198.737C50.5531 196.083 47.9808 192.951 45.9668 189.464C45.5253 188.653 45.0657 187.887 44.7413 187.139C44.4169 186.391 44.0654 185.697 43.8401 185.049C43.6149 184.4 43.3625 183.805 43.1643 183.246C42.966 182.688 42.8219 182.264 42.7047 181.895C42.5831 181.508 42.4325 181.132 42.2542 180.768Z" fill="#1B2E35"/>
<path d="M117.814 147.499C122.207 146.531 125.752 145.667 125.73 145.57C125.709 145.473 122.13 146.179 117.736 147.147C113.342 148.116 109.798 148.98 109.82 149.077C109.841 149.174 113.42 148.468 117.814 147.499Z" fill="#FAFAFA"/>
<path d="M109.812 145.057C110.572 145.04 111.329 144.955 112.074 144.804C113.462 144.588 115.372 144.255 117.481 143.849L122.887 142.795C123.637 142.679 124.378 142.51 125.104 142.29C124.344 142.308 123.587 142.392 122.842 142.543C121.455 142.759 119.544 143.092 117.436 143.498L112.029 144.552C111.279 144.668 110.538 144.837 109.812 145.057Z" fill="#FAFAFA"/>
<path d="M71.1788 145.505C90.2544 145.361 105.718 145.165 105.717 145.065C105.716 144.966 90.2517 145.001 71.1761 145.144C52.1005 145.287 36.6373 145.484 36.6381 145.584C36.6388 145.683 52.1032 145.648 71.1788 145.505Z" fill="#FAFAFA"/>
<path d="M71.0362 149.265C90.6647 149.265 106.577 149.184 106.577 149.085C106.577 148.985 90.6647 148.905 71.0362 148.905C51.4077 148.905 35.4956 148.985 35.4956 149.085C35.4956 149.184 51.4077 149.265 71.0362 149.265Z" fill="#FAFAFA"/>
<path d="M6.54246 140.921H6.46136C6.46136 141.002 6.52444 140.921 6.5695 140.921H6.63258V140.858H6.33521L6.54246 140.939C7.81306 141.407 13.1297 143.201 19.4016 145.598L28.6472 149.157L31.4497 150.229C31.7876 150.376 32.1373 150.494 32.495 150.581C32.1787 150.394 31.8471 150.234 31.5038 150.103C30.855 149.815 29.9088 149.409 28.7373 148.923C26.3944 147.95 23.1413 146.634 19.5278 145.264C13.2198 142.876 7.88515 141.182 6.5695 140.867V140.939H6.6506V140.876H6.54246C6.54246 140.876 6.46136 140.876 6.44334 140.93L6.54246 140.921Z" fill="#FAFAFA"/>
<path d="M34.1575 145.563C34.1891 145.469 28.1569 143.357 20.6841 140.847C13.2113 138.336 7.12767 136.377 7.09597 136.472C7.06427 136.566 13.0965 138.678 20.5693 141.188C28.0421 143.699 34.1258 145.658 34.1575 145.563Z" fill="#FAFAFA"/>
<path d="M53.0496 95.6836C53.0129 95.8647 52.9918 96.0486 52.9865 96.2333C52.954 96.7675 52.954 97.3031 52.9865 97.8373C53.0607 99.8091 53.4721 101.754 54.203 103.587C55.2908 106.318 57.0404 108.736 59.2944 110.624C62.1139 112.89 65.5668 114.226 69.1773 114.447C72.7877 114.668 76.3778 113.764 79.4527 111.859C81.9198 110.261 83.9511 108.074 85.3641 105.497C86.3139 103.766 86.9601 101.886 87.2745 99.9369C87.3578 99.4089 87.409 98.8762 87.4277 98.3419C87.4438 98.156 87.4438 97.9691 87.4277 97.7832C87.3882 97.9641 87.3641 98.148 87.3556 98.3329C87.3556 98.6934 87.2565 99.234 87.1394 99.9099C86.7768 101.826 86.1041 103.671 85.1479 105.371C83.7142 107.89 81.6844 110.019 79.2364 111.571C76.2145 113.42 72.6972 114.296 69.1609 114.08C65.6246 113.864 62.2401 112.566 59.4656 110.363C57.2386 108.511 55.4997 106.141 54.4013 103.46C53.6582 101.658 53.2138 99.7466 53.0856 97.8012C53.0856 97.1074 53.0406 96.5757 53.0856 96.2153C53.0881 96.0373 53.076 95.8595 53.0496 95.6836Z" fill="#FAFAFA"/>
<path d="M136.747 151.338C136.839 151.574 136.96 151.798 137.107 152.004C137.36 152.419 137.738 153.014 138.234 153.726C140.8 157.456 143.734 160.918 146.993 164.062C147.623 164.665 148.137 165.134 148.507 165.449C148.685 165.629 148.885 165.787 149.101 165.918C148.96 165.709 148.793 165.519 148.606 165.35L147.173 163.836C145.965 162.593 144.334 160.845 142.667 158.835C141 156.826 139.504 154.924 138.477 153.527L137.206 151.923C137.077 151.71 136.923 151.514 136.747 151.338Z" fill="#FAFAFA"/>
<g opacity="0.2">
<path opacity="0.2" d="M59.1324 202.828C62.6018 204.802 67.2426 205.117 71.4599 205.225C72.248 205.298 73.0424 205.193 73.7848 204.919C74.1476 204.776 74.4595 204.528 74.681 204.207C74.9025 203.886 75.0234 203.507 75.0284 203.117C74.9473 202.216 74.0011 201.567 73.127 201.206C69.7568 199.783 65.972 199.882 62.4126 198.981C56.375 197.467 50.2203 193.15 45.5164 189.068C48.7364 194.791 53.4321 199.546 59.1144 202.837" fill="black"/>
</g>
<path d="M72.1268 111.922C76.0348 111.608 79.6787 109.825 82.3253 106.933C84.9719 104.041 86.4249 100.253 86.3917 96.3327C86.3917 92.4758 86.3196 89.385 86.3196 89.385C86.3196 89.385 98.7552 87.4475 98.9355 75.0119C99.1157 62.5763 96.935 34.0195 96.935 34.0195C89.8615 30.9804 82.1051 29.8842 74.4665 30.8442C66.8279 31.8042 59.5839 34.7855 53.4824 39.4803L51.6802 40.8951L55.4649 97.5042C55.6018 99.5487 56.1426 101.546 57.0563 103.38C57.9699 105.214 59.2382 106.849 60.7876 108.19C62.3371 109.53 64.1371 110.551 66.0835 111.191C68.0298 111.832 70.0839 112.08 72.1268 111.922Z" fill="#FFBF9C"/>
<path d="M86.3375 89.2046C80.5934 89.3151 74.9465 87.712 70.1172 84.5999C70.1172 84.5999 73.947 93.5481 86.3375 92.4307V89.2046Z" fill="#F89A71"/>
<path d="M53.1668 53.7813C52.9505 53.6912 44.624 51.2581 44.8944 59.7558C45.1647 68.2535 53.6444 66.2349 53.6534 65.9916C53.6624 65.7483 53.1668 53.7813 53.1668 53.7813Z" fill="#FFBF9C"/>
<path d="M50.95 62.8468C50.95 62.8468 50.8058 62.955 50.5625 63.0811C50.2141 63.2424 49.8165 63.2618 49.4541 63.1352C48.553 62.8378 47.7419 61.4321 47.6518 59.9001C47.6066 59.1746 47.7236 58.4481 47.9943 57.7735C48.066 57.5051 48.2019 57.2583 48.3903 57.0542C48.5786 56.8501 48.8139 56.6949 49.0756 56.602C49.2463 56.5484 49.4305 56.557 49.5954 56.6263C49.7604 56.6956 49.8955 56.8211 49.9767 56.9805C50.0939 57.2148 50.0488 57.386 50.0939 57.395C50.1389 57.404 50.2741 57.2508 50.193 56.8994C50.1425 56.6885 50.0178 56.503 49.8416 56.3767C49.601 56.2068 49.303 56.1388 49.0125 56.1875C48.6654 56.2679 48.3448 56.4361 48.0813 56.6759C47.8178 56.9157 47.6203 57.2192 47.5076 57.5572C47.1783 58.3047 47.036 59.1213 47.0931 59.9362C47.2013 61.6483 48.1294 63.2253 49.373 63.5407C49.6041 63.6002 49.8457 63.6069 50.0797 63.5601C50.3138 63.5132 50.5342 63.4142 50.7247 63.2704C50.9409 63.0541 50.986 62.9099 50.95 62.8468Z" fill="#F89A71"/>
<path d="M92.3933 53.9613C92.3939 54.4241 92.2164 54.8694 91.8977 55.2049C91.579 55.5404 91.1434 55.7404 90.6812 55.7636C90.4572 55.7782 90.2325 55.7481 90.0202 55.6752C89.8079 55.6022 89.6122 55.4878 89.4445 55.3385C89.2768 55.1893 89.1405 55.0082 89.0434 54.8058C88.9463 54.6034 88.8904 54.3837 88.8789 54.1596C88.8783 53.6968 89.0558 53.2515 89.3745 52.916C89.6933 52.5805 90.1289 52.3804 90.5911 52.3573C90.8148 52.3439 91.039 52.3748 91.2508 52.4482C91.4625 52.5216 91.6577 52.6361 91.8252 52.7851C91.9926 52.9342 92.129 53.1148 92.2265 53.3166C92.324 53.5184 92.3807 53.7375 92.3933 53.9613Z" fill="#1B2E35"/>
<path d="M94.5557 51.5193C94.3394 51.7536 92.9877 50.7534 91.0773 50.7624C89.1669 50.7714 87.7702 51.7266 87.5539 51.4923C87.3376 51.258 87.6801 50.9696 88.2838 50.5281C89.1078 49.9426 90.0935 49.6276 91.1044 49.627C92.0989 49.6256 93.0679 49.9412 93.8708 50.5281C94.4656 50.9967 94.6638 51.4112 94.5557 51.5193Z" fill="#1B2E35"/>
<path d="M74.0462 54.3761C74.0467 54.8389 73.8693 55.2841 73.5505 55.6197C73.2318 55.9552 72.7962 56.1552 72.334 56.1784C72.1103 56.1918 71.8861 56.1609 71.6743 56.0875C71.4625 56.014 71.2673 55.8995 71.0999 55.7505C70.9324 55.6015 70.7961 55.4209 70.6986 55.2191C70.6011 55.0172 70.5444 54.7981 70.5317 54.5744C70.5312 54.1116 70.7086 53.6663 71.0274 53.3308C71.3461 52.9953 71.7817 52.7952 72.2439 52.7721C72.4676 52.7587 72.6918 52.7896 72.9036 52.863C73.1154 52.9364 73.3106 53.0509 73.478 53.1999C73.6455 53.349 73.7818 53.5296 73.8793 53.7314C73.9768 53.9332 74.0335 54.1523 74.0462 54.3761Z" fill="#1B2E35"/>
<path d="M75.7674 51.8709C75.5512 52.1052 74.1995 51.1049 72.2891 51.1139C70.3787 51.123 68.9729 52.0782 68.7657 51.8439C68.5584 51.6096 68.8828 51.3212 69.4956 50.8796C70.3196 50.2941 71.3052 49.9792 72.3161 49.9785C73.3105 49.9777 74.2794 50.2933 75.0826 50.8796C75.6773 51.3482 75.8756 51.7718 75.7674 51.8709Z" fill="#1B2E35"/>
<path d="M82.7058 66.0457C83.7117 65.7307 84.7531 65.543 85.8057 65.487C86.2923 65.4329 86.7519 65.3428 86.842 65.0094C86.8843 64.504 86.7711 63.9978 86.5176 63.5586L85.0758 59.8459C83.0753 54.5563 81.6245 50.2038 81.8317 50.1227C82.039 50.0416 83.8412 54.2679 85.8508 59.5576L87.2295 63.2973C87.5374 63.8873 87.6268 64.5671 87.4818 65.2167C87.4108 65.3884 87.3017 65.5417 87.1628 65.665C87.0239 65.7883 86.8587 65.8784 86.6798 65.9286C86.4095 66.0024 86.1309 66.0417 85.8508 66.0457C84.8067 66.1789 83.7499 66.1789 82.7058 66.0457Z" fill="#1B2E35"/>
<path d="M76.2629 44.3825C76.0736 44.9052 74.1632 44.6529 71.9284 44.9232C69.6936 45.1936 67.8734 45.8244 67.576 45.3377C67.4408 45.1125 67.7562 44.6259 68.4771 44.1212C69.4533 43.5048 70.557 43.1188 71.7046 42.9923C72.8521 42.8658 74.0134 43.0023 75.1004 43.3913C75.9295 43.7247 76.344 44.1392 76.2629 44.3825Z" fill="#1B2E35"/>
<path d="M93.8529 45.9866C93.5195 46.4191 92.2038 45.9866 90.6178 45.9866C89.0318 45.9866 87.6982 46.2749 87.3828 45.8244C87.2476 45.6081 87.4549 45.1665 88.0406 44.761C88.8273 44.2695 89.7423 44.0225 90.6695 44.0513C91.5967 44.0802 92.4945 44.3837 93.2491 44.9232C93.8168 45.3288 93.9971 45.7883 93.8529 45.9866Z" fill="#1B2E35"/>
<path d="M102.963 26.1706C103.051 25.3996 102.941 24.6191 102.645 23.902C102.349 23.185 101.875 22.5548 101.269 22.0704C100.644 21.6118 99.8756 21.3915 99.1024 21.4493C98.3292 21.5071 97.602 21.8393 97.052 22.3858C97.1679 21.8661 97.1733 21.3279 97.068 20.8059C96.9627 20.284 96.7489 19.79 96.4406 19.3559C96.1322 18.9219 95.7361 18.5574 95.278 18.2861C94.8198 18.0148 94.3098 17.8427 93.7809 17.781C91.7534 17.6549 90.0232 19.1868 88.0587 19.7185C86.1031 20.1298 84.0668 19.8959 82.2554 19.0516C80.4532 18.3127 78.6509 17.2494 76.8487 16.6096C72.909 15.1708 68.5604 15.3465 64.7496 17.0983C60.9388 18.8502 57.9742 22.0363 56.5011 25.9633C53.7977 25.1162 50.6888 26.495 49.0127 28.8019C47.4184 31.2014 46.7758 34.1091 47.2105 36.9571C47.4764 38.8635 47.954 40.7344 48.6342 42.5351C48.6342 42.6973 48.6342 42.8505 48.6342 43.0127C48.7604 49.8523 49.5354 57.8814 52.455 57.9264C57.5374 58.0075 56.3299 48.4195 56.3299 48.4195C62.5747 46.0044 60.2498 36.6597 61.8088 35.2359C63.3677 33.8122 66.6388 30.469 79.7052 37.1914C84.7786 39.7866 91.5281 39.7055 95.2047 38.8675L95.5291 38.8044H95.6012H95.7093C96.8938 38.5066 98.0248 38.0263 99.0615 37.3806C100.285 36.6763 101.251 35.5997 101.819 34.3078C102.093 33.6602 102.172 32.9466 102.045 32.2549C101.919 31.5632 101.593 30.9236 101.107 30.4149C102.132 29.215 102.778 27.7379 102.963 26.1706Z" fill="#1B2E35"/>
<path d="M84.7967 71.3711C84.4183 72.0967 83.9717 72.7847 83.463 73.4257C82.8854 74.0841 82.1843 74.6229 81.3994 75.0117C80.7348 75.2701 80.0051 75.3098 79.3164 75.125C78.6276 74.9403 78.0157 74.5407 77.5696 73.9844C76.9315 73.2149 76.5335 72.2748 76.4252 71.281C76.3668 70.3802 76.3819 69.476 76.4703 68.5776C77.4495 68.86 78.4467 69.1604 79.462 69.4788C81.3364 70.1186 83.1386 70.7313 84.7967 71.3711Z" fill="white"/>
</g>
</svg>
