<svg width="202" height="217" viewBox="0 0 202 217" fill="none" xmlns="http://www.w3.org/2000/svg">
<path d="M131.691 29.9075H85.7022C46.8728 29.9075 15.3953 61.385 15.3953 100.214V146.204C15.3953 185.033 46.8728 216.511 85.7022 216.511H131.691C170.521 216.511 201.998 185.033 201.998 146.204V100.214C201.998 61.385 170.521 29.9075 131.691 29.9075Z" fill="#E5E7FB" fill-opacity="0.5"/>
<mask id="mask0_101_257" style="mask-type:alpha" maskUnits="userSpaceOnUse" x="0" y="0" width="202" height="217">
<path fill-rule="evenodd" clip-rule="evenodd" d="M71.3052 0.00146484H117.294C151.096 0.00146484 179.326 23.8548 186.07 55.6466C196.024 67.7773 201.998 83.2981 201.998 100.214V146.204C201.998 185.033 170.521 216.51 131.691 216.51H85.7021C51.9007 216.51 23.6705 192.657 16.9262 160.865C6.97253 148.735 0.998291 133.214 0.998291 116.298V70.3084C0.998291 31.479 32.4758 0.00146484 71.3052 0.00146484Z" fill="#E5E7FB"/>
</mask>
<g mask="url(#mask0_101_257)">
<path d="M128.758 124.756C124.428 124.68 120.294 122.939 117.212 119.897C114.131 116.854 112.339 112.741 112.208 108.413C111.984 100.923 111.814 93.7198 111.814 93.7198C111.814 93.7198 98.0806 92.4371 97.058 78.8385C96.0354 65.24 96.4839 33.836 96.4839 33.836C104.017 30.0318 112.429 28.3079 120.852 28.8425C129.274 29.3771 137.401 32.1507 144.393 36.8768L146.519 38.2941L145.936 108.036C145.918 110.265 145.459 112.469 144.584 114.52C143.708 116.57 142.435 118.427 140.838 119.982C139.24 121.537 137.35 122.76 135.276 123.579C133.203 124.399 130.987 124.799 128.758 124.756Z" fill="#FFBF9C"/>
<path d="M111.464 70.4517C111.464 70.3082 110.298 70.1377 108.396 69.9942C107.903 69.9942 107.499 69.8866 107.499 69.6264C107.454 69.1362 107.544 68.6429 107.759 68.2002L109.006 64.2983C110.719 58.7458 111.877 54.1711 111.599 54.0814C111.32 53.9917 109.697 58.4229 108.01 63.9484L106.844 67.8773C106.567 68.5264 106.516 69.25 106.701 69.9314C106.783 70.1142 106.907 70.2751 107.063 70.4013C107.219 70.5275 107.402 70.6154 107.598 70.658C107.875 70.7137 108.159 70.7318 108.441 70.7118C110.28 70.7028 111.464 70.5952 111.464 70.4517Z" fill="#1B2E35"/>
<path d="M117.689 72.1467C114.8 73.5387 111.772 74.6241 108.656 75.3849C109.355 76.3386 110.358 77.0255 111.499 77.3321C112.641 77.6387 113.853 77.5467 114.935 77.0713C118.882 75.3311 117.689 72.1467 117.689 72.1467Z" fill="white"/>
<path d="M111.778 93.5224C118.071 93.254 124.141 91.1181 129.216 87.387C129.216 87.387 125.628 97.4423 111.966 97.0566L111.778 93.5224Z" fill="#F89A71"/>
<path d="M145.747 55.1218C145.744 54.5907 145.947 54.0791 146.314 53.6944C146.68 53.3097 147.181 53.0819 147.712 53.0587C150.25 52.9869 154.403 53.9557 154.798 61.0061C155.354 71.0167 145.72 68.523 145.693 68.236C145.666 67.9489 145.72 59.0148 145.747 55.1218Z" fill="#FFBF9C"/>
<path d="M147.891 64.2984C147.891 64.2984 148.071 64.415 148.376 64.5316C148.802 64.6823 149.27 64.6663 149.685 64.4868C150.726 64.0383 151.479 62.3071 151.479 60.5041C151.456 59.6453 151.242 58.8026 150.851 58.0373C150.74 57.7295 150.555 57.4536 150.312 57.2332C150.07 57.0129 149.778 56.8548 149.461 56.7726C149.257 56.732 149.046 56.7634 148.862 56.8616C148.679 56.9598 148.536 57.1185 148.456 57.3108C148.34 57.5978 148.456 57.7951 148.358 57.8131C148.259 57.831 148.134 57.6606 148.187 57.239C148.231 56.9894 148.357 56.7617 148.546 56.5932C148.811 56.3708 149.152 56.2613 149.497 56.2882C149.913 56.3468 150.307 56.5112 150.642 56.7656C150.976 57.02 151.24 57.356 151.408 57.7413C151.882 58.5834 152.144 59.5288 152.17 60.4951C152.215 62.5134 151.273 64.4599 149.865 64.9801C149.599 65.0732 149.316 65.1055 149.037 65.0744C148.757 65.0433 148.489 64.9498 148.25 64.8007C147.927 64.5406 147.864 64.3253 147.891 64.2984Z" fill="#F89A71"/>
<path d="M100.772 56.8891C100.802 57.3697 101.018 57.8196 101.375 58.143C101.732 58.4664 102.201 58.6376 102.682 58.6203C103.158 58.6203 103.614 58.4313 103.951 58.0949C104.287 57.7584 104.476 57.3021 104.476 56.8263C104.449 56.3441 104.233 55.8919 103.876 55.5667C103.519 55.2414 103.048 55.0689 102.566 55.0861C102.329 55.0861 102.095 55.1328 101.877 55.2235C101.659 55.3143 101.461 55.4472 101.294 55.6148C101.127 55.7823 100.995 55.9811 100.906 56.1998C100.816 56.4185 100.771 56.6528 100.772 56.8891Z" fill="#1B2E35"/>
<path d="M97.6054 55.0318C97.8476 55.2561 99.1752 54.1348 101.193 53.9913C103.212 53.8478 104.701 54.7448 104.898 54.4846C104.997 54.368 104.737 53.9554 104.064 53.5338C103.163 53.0007 102.12 52.7595 101.077 52.8431C100.032 52.9046 99.0351 53.3009 98.2333 53.9734C97.6592 54.4846 97.4798 54.9331 97.6054 55.0318Z" fill="#1B2E35"/>
<path d="M120.506 56.5481C120.536 57.0288 120.752 57.4787 121.109 57.802C121.466 58.1254 121.935 58.2966 122.416 58.2793C122.892 58.2793 123.348 58.0903 123.685 57.7539C124.021 57.4174 124.21 56.9611 124.21 56.4853C124.18 56.0047 123.964 55.5548 123.607 55.2314C123.25 54.9081 122.781 54.7368 122.3 54.7541C121.824 54.7541 121.368 54.9431 121.031 55.2796C120.695 55.616 120.506 56.0723 120.506 56.5481Z" fill="#1B2E35"/>
<path d="M117.743 55.0318C117.985 55.2561 119.313 54.1348 121.331 53.9913C123.349 53.8478 124.838 54.7448 125.036 54.4846C125.134 54.368 124.874 53.9554 124.201 53.5338C123.301 53.0007 122.257 52.7595 121.214 52.8431C120.173 52.9065 119.179 53.3027 118.38 53.9734C117.815 54.4846 117.626 54.9331 117.743 55.0318Z" fill="#1B2E35"/>
<path d="M130.875 29.1268C129.98 31.2477 129.717 33.5825 130.12 35.8492C130.523 38.1159 131.573 40.2175 133.145 41.9001C134.49 43.2905 136.176 44.349 137.333 45.8918C139.737 49.0941 139.352 53.4894 139.72 57.4721C139.89 59.3199 140.329 61.2754 141.684 62.5312C143.038 63.787 145.577 63.8767 146.519 62.28C146.778 61.7811 146.948 61.2408 147.021 60.6833L149.524 47.3718C150.152 44.044 150.78 40.6264 150.197 37.2896C149.859 35.3345 149.117 33.4716 148.017 31.8205C146.917 30.1695 145.484 28.7667 143.809 27.7023C142.135 26.638 140.257 25.9356 138.295 25.6402C136.333 25.3449 134.331 25.4631 132.418 25.9873" fill="#1B2E35"/>
<path d="M132.965 26.3101C128.346 25.4131 125.789 23.951 122.488 22.4799C119.263 20.8769 115.577 20.4578 112.074 21.2959C109.751 21.9507 107.589 23.35 105.149 23.3231C102.709 23.2962 100.664 21.8879 98.3678 21.1703C96.8167 20.691 95.185 20.529 93.5699 20.6939C91.9548 20.8588 90.3895 21.3472 88.9672 22.1301C86.7337 23.359 84.7244 25.5566 84.5361 28.2476C84.3477 30.9386 86.7427 33.7193 89.1466 32.9569C86.635 33.8539 85.6125 37.5316 86.8683 40.0073C87.5205 41.1715 88.5179 42.1047 89.7228 42.6782C90.9277 43.2518 92.2809 43.4374 93.5958 43.2096C96.206 42.797 98.5113 41.1017 100.377 39.0744C100.44 42.0704 103.436 44.1784 106.226 44.0887C109.015 43.999 111.527 42.2947 113.823 40.6173C116.119 38.9399 118.443 37.0293 121.179 36.4193C123.08 35.9977 125.045 36.222 126.973 35.9888C128.902 35.7555 130.956 34.9213 131.889 33.0825C132.822 31.2436 136.517 29.1357 134.58 29.0819" fill="#1B2E35"/>
<path d="M105.606 41.0568C105.937 41.2572 106.279 41.4398 106.629 41.604C107.631 41.9358 108.713 41.9358 109.715 41.604C110.412 41.394 111.079 41.0923 111.697 40.707C112.37 40.3033 113.052 39.81 113.778 39.2628C114.538 38.6827 115.346 38.1667 116.191 37.7199C117.126 37.2444 118.156 36.9867 119.205 36.9665C121.34 36.9665 123.277 37.5047 125.027 37.3432C125.796 37.2966 126.545 37.0822 127.222 36.7149C127.899 36.3476 128.488 35.8364 128.946 35.2173C129.59 34.3815 129.993 33.386 130.113 32.3379C130.193 31.5934 130.113 31.1718 130.166 31.1629C130.22 31.1539 130.211 31.2615 130.247 31.4589C130.303 31.7544 130.324 32.0555 130.31 32.3559C130.261 33.4648 129.886 34.5348 129.233 35.4326C128.791 36.0617 128.227 36.5955 127.574 37.0023C126.816 37.4664 125.958 37.7431 125.071 37.8096C123.206 37.998 121.241 37.4239 119.223 37.4688C117.205 37.5136 115.491 38.608 114.047 39.6395C113.312 40.1598 112.612 40.6621 111.903 41.0658C111.248 41.4601 110.542 41.762 109.804 41.9628C108.736 42.2846 107.59 42.2307 106.557 41.8103C106.286 41.6845 106.034 41.5182 105.813 41.3169C105.669 41.1465 105.597 41.0747 105.606 41.0568Z" fill="#1B2E35"/>
<path d="M131.566 21.5652C131.571 22.6354 131.664 23.7035 131.844 24.7585C132.181 25.7719 132.601 26.7559 133.1 27.7007C132.18 27.0159 131.557 26.0048 131.359 24.8751C131.003 23.786 131.077 22.6016 131.566 21.5652Z" fill="#1B2E35"/>
<path d="M136.652 21.3589C136.759 21.4665 135.521 22.6416 134.589 24.4804C133.656 26.3193 133.44 27.9608 133.288 27.9608C133.199 26.6574 133.512 25.3582 134.185 24.2383C134.697 23.0509 135.557 22.0469 136.652 21.3589Z" fill="#1B2E35"/>
<path d="M200.913 163.794L221.822 217.596H189.817L174.9 179.294L200.913 163.794Z" fill="#FFBF9C"/>
<path d="M95.0578 129.053C94.2268 129.237 93.3793 129.336 92.5283 129.349C88.3213 129.403 84.1772 130.192 79.9702 130.246C77.28 130.289 74.6516 129.437 72.4982 127.824C64.9545 136.794 55.1054 147.1 48.6021 148.114C44.754 148.715 34.4385 102.475 32.2946 89.0106C32.6426 87.1719 33.2815 85.4005 34.1873 83.7631C34.9657 82.2222 35.9166 80.7747 37.0218 79.4485C38.4238 77.8116 40.0412 76.3723 41.8298 75.1698C43.57 74.2728 43.3278 71.6895 41.5786 71.4473C39.8295 71.2051 34.9587 73.7077 31.0658 78.722C27.1728 83.7362 27.0203 73.8513 26.9037 70.2363C26.7871 66.6214 25.899 55.4627 24.7598 54.6465C23.0914 53.4535 21.4589 55.0591 21.6652 58.665C21.8715 62.271 21.71 73.1426 19.7994 73.1695C17.8888 73.1964 17.5659 54.772 17.5659 54.772C17.5659 54.772 18.131 50.8073 15.9244 50.7535C11.9686 50.6638 13.7626 70.1735 13.9779 72.0303C14.1304 73.322 12.0583 73.4117 11.9686 72.0303C11.8789 70.649 12.0493 53.6418 8.00386 53.5073C4.90024 53.4086 9.3404 69.5815 7.35802 73.1247C5.37565 76.6678 5.2411 60.477 2.26306 60.4949C1.15975 60.4949 0.325537 60.6653 1.7428 69.9134C2.50525 74.8828 5.58196 82.0947 6.34441 91.7823C12.0135 119.832 23.0017 199.369 52.9885 185.07C85.9353 169.337 106.019 143.01 106.019 143.01L95.0578 129.053Z" fill="#FFBF9C"/>
<path d="M164.773 145.548C164.919 145.912 165.024 146.291 165.087 146.679C165.257 147.414 165.481 148.473 165.724 149.8C166.217 152.491 166.8 156.124 167.257 160.214C167.715 164.305 167.939 168.018 168.038 170.709C168.083 172.055 168.101 173.14 168.101 173.894C168.127 174.286 168.108 174.68 168.047 175.069C167.959 174.686 167.914 174.295 167.912 173.903L167.697 170.727C167.518 168.036 167.222 164.341 166.8 160.268C166.378 156.196 165.822 152.518 165.419 149.863L164.934 146.714C164.837 146.333 164.783 145.942 164.773 145.548Z" fill="#1B2E35"/>
<path d="M82.8944 217.596L171.007 218.044L168.047 199.449C168.821 190.623 168.776 181.743 167.912 172.925L172.397 185.025L208.815 166.816C208.815 166.816 195.576 131.51 184.498 119.562C170.495 104.457 145.308 105.955 145.308 105.955L128.265 117.517L112.594 106.484C104.186 107.468 96.0004 109.848 88.3751 113.526L87.5677 113.759V113.929C78.3286 118.764 65.1427 130.524 52.5847 141.943L67.0803 156.052L83.1366 171.005C83.1366 171.005 85.8276 170.7 85.8814 170.889C86.1505 172.467 82.8944 217.596 82.8944 217.596Z" fill="#346BEC"/>
<path opacity="0.2" d="M165.203 139.915L177.178 182.621L172.371 185.025L167.886 172.925C167.886 172.925 163.562 147.603 165.203 139.915Z" fill="black"/>
<path d="M111.607 106.269V101.658C111.607 101.658 125.367 100.591 128.157 116.844C128.157 116.844 132.642 101.658 145.989 100.133L147.891 107.229C147.891 107.229 141.567 126.963 140.652 127.178C139.737 127.393 128.157 130.766 128.157 130.766L121.456 129.241L114.002 120.764L111.607 106.269Z" fill="#346BEC"/>
<path d="M148.205 106.699C147.983 106.997 147.727 107.268 147.443 107.507C146.94 108.009 146.205 108.726 145.344 109.65C143.096 112.059 141.098 114.689 139.379 117.499C138.957 118.19 138.571 118.872 138.203 119.535L137.979 119.939L137.764 119.544L133.853 112.216C133.628 111.822 133.322 111.479 132.956 111.211C132.69 111.025 132.382 110.908 132.059 110.87C131.77 110.862 131.483 110.914 131.216 111.023C131.216 111.023 131.44 110.718 132.059 110.7C132.432 110.7 132.798 110.802 133.117 110.996C133.527 111.265 133.873 111.62 134.131 112.036C135.216 113.83 136.598 116.396 138.203 119.302H137.773C138.141 118.629 138.526 117.93 138.957 117.239C140.688 114.397 142.747 111.769 145.092 109.408C145.989 108.511 146.77 107.829 147.317 107.363C147.585 107.107 147.883 106.884 148.205 106.699Z" fill="#1B2E35"/>
<path d="M110.71 107.516C110.959 107.715 111.179 107.947 111.365 108.206C111.76 108.673 112.325 109.354 113.007 110.207C114.379 111.911 116.245 114.288 118.272 116.934L118.595 117.356H118.182C118.918 115.992 118.972 114.431 119.313 113.068C119.517 111.798 120.197 110.653 121.214 109.866C121.575 109.626 121.986 109.473 122.415 109.419C122.845 109.364 123.281 109.41 123.69 109.552C123.907 109.638 124.105 109.766 124.273 109.929C124.381 110.045 124.426 110.117 124.408 110.126C124.162 109.967 123.901 109.835 123.627 109.731C123.247 109.637 122.852 109.627 122.467 109.701C122.083 109.775 121.72 109.933 121.403 110.162C120.5 110.933 119.913 112.009 119.752 113.185C119.438 114.494 119.411 116.091 118.613 117.607L118.434 117.948L118.2 117.643L117.877 117.221C115.841 114.575 114.02 112.171 112.729 110.404C112.083 109.507 111.563 108.807 111.213 108.305C111.011 108.065 110.842 107.8 110.71 107.516Z" fill="#1B2E35"/>
<path d="M120.506 217.595C120.495 217.509 120.495 217.422 120.506 217.335V216.573L120.667 213.64L121.349 202.876L123.789 167.283L126.381 131.699L127.224 120.935L127.475 118.001L127.556 117.239C127.545 117.153 127.545 117.065 127.556 116.979C127.567 117.065 127.567 117.153 127.556 117.239V118.001L127.395 120.935L126.713 131.699L124.273 167.292L121.717 202.876L120.873 213.64L120.622 216.573L120.542 217.335C120.541 217.423 120.529 217.511 120.506 217.595Z" fill="#1B2E35"/>
<path d="M88.8684 132.138C88.8849 132.648 88.8579 133.158 88.7877 133.663L88.4558 137.807C88.1957 141.315 87.9266 146.159 87.6305 151.514C87.3345 156.869 87.0116 161.722 86.6528 165.229C86.4824 167.023 86.303 168.395 86.1595 169.373C86.1099 169.882 86.0169 170.386 85.8814 170.88C85.8649 170.37 85.8919 169.86 85.9621 169.355L86.294 165.211C86.5541 161.704 86.8232 156.86 87.1282 151.496C87.4332 146.132 87.7472 141.288 88.106 137.781C88.2764 135.987 88.4558 134.614 88.5993 133.636C88.6464 133.13 88.7364 132.629 88.8684 132.138Z" fill="#1B2E35"/>
<path d="M177.914 114.97C177.633 114.73 177.333 114.514 177.017 114.324C176.079 113.889 175.011 113.828 174.03 114.153C172.589 114.706 171.31 115.609 170.307 116.782C168.982 118.141 167.839 119.667 166.907 121.32C165.215 124.35 164.231 127.723 164.028 131.187C163.867 133.878 164.207 135.484 164.109 135.493C163.983 135.124 163.898 134.742 163.858 134.354C163.709 133.299 163.649 132.234 163.678 131.17C163.783 127.632 164.743 124.173 166.477 121.087C167.429 119.394 168.61 117.84 169.984 116.468C171.05 115.262 172.41 114.354 173.931 113.83C174.456 113.673 175.008 113.622 175.553 113.68C176.098 113.739 176.626 113.906 177.106 114.171C177.363 114.318 177.593 114.506 177.788 114.727C177.914 114.826 177.914 114.916 177.914 114.97Z" fill="#1B2E35"/>
</g>
</svg>
