<svg width="163" height="236" viewBox="0 0 163 236" fill="none" xmlns="http://www.w3.org/2000/svg">
<path d="M152.088 128.753C141.965 143.241 124.685 153.088 100.247 158.294C86.1235 161.311 73.4337 161.68 62.1775 159.401C50.9213 157.122 41.2465 152.886 33.153 146.692C25.0647 140.517 18.3082 132.771 13.2896 123.919C8.16799 114.997 4.4686 105.33 2.32472 95.2687C-0.258302 83.2146 -0.688805 72.5482 1.03321 63.2694C2.75522 53.9533 6.17341 45.9158 11.3265 39.0709C16.4796 32.2259 23.1912 26.5863 31.431 22.0488C39.6708 17.5113 49.2624 14.0629 60.1499 11.7382C73.6849 8.84811 85.5495 8.21384 95.7438 9.8354C105.938 11.4713 114.729 14.4504 122.099 18.6995C129.469 22.9485 135.561 28.0672 140.357 33.9479C144.773 39.2317 148.626 44.961 151.856 51.0431C154.726 56.5708 156.789 61.5488 158.046 65.9773C159.29 70.3684 160.044 73.1753 160.285 74.2903C164.96 96.1369 162.228 114.291 152.088 128.753Z" fill="#F2F3FD"/>
<path d="M81.2531 236C110.757 236 134.674 232.303 134.674 227.743C134.674 223.183 110.757 219.486 81.2531 219.486C51.7495 219.486 27.832 223.183 27.832 227.743C27.832 232.303 51.7495 236 81.2531 236Z" fill="#F2F3FD"/>
<path d="M66.0779 212.452L67.6234 226.335L76.3454 223.632L75.5489 220.648L74.3478 206.27L66.0779 212.452Z" fill="#FFBFA0"/>
<path d="M75.1874 215.943L74.3264 206.27L66.0564 212.452L66.5127 216.21C69.3368 215.685 72.3288 216.257 75.1874 215.943Z" fill="#FF9A71"/>
<path d="M66.9864 221.238L69.0873 222.719L76.7158 221.63L76.6856 229.172L53.5676 229.745C53.5676 229.745 53.0166 228.677 54.3167 226.968C56.0215 224.751 66.9864 221.238 66.9864 221.238Z" fill="#346BEC"/>
<path d="M59.4394 224.028C57.119 225.014 54.9966 226.094 54.325 226.972C53.0335 228.694 53.5759 229.749 53.5759 229.749L62.186 229.534C61.3465 227.666 60.4382 225.827 59.4394 224.028Z" fill="white"/>
<path d="M54.5878 228.333L53.5718 229.749L76.6898 229.177L76.6855 227.407L54.5878 228.333Z" fill="white"/>
<path d="M65.359 222.073L64.6228 218.38L69.6554 219.043L68.239 224.148L65.359 222.073Z" fill="#346BEC"/>
<path d="M61.3293 223.184L62.7371 225.022" stroke="white" stroke-width="0.68" stroke-miterlimit="10" stroke-linecap="round"/>
<path d="M63.0645 222.456L64.4722 224.29" stroke="white" stroke-width="0.68" stroke-miterlimit="10" stroke-linecap="round"/>
<path d="M64.894 221.789L66.3018 223.623" stroke="white" stroke-width="0.68" stroke-miterlimit="10" stroke-linecap="round"/>
<path d="M76.6812 227.76L53.4599 228.789L53.4556 229.142L76.7415 228.32L76.6812 227.76Z" fill="#03324D"/>
<path d="M97.8232 213.3L99.3687 227.188L108.091 224.484L107.294 221.501L106.093 207.122L97.8232 213.3Z" fill="#FFBFA0"/>
<path d="M106.945 217.101L106.084 207.117L97.8145 213.299L98.288 217.101C101.164 217.438 104.069 217.438 106.945 217.101Z" fill="#FF9A71"/>
<path d="M98.7315 222.091L100.832 223.572L108.461 222.482L108.431 230.025L85.3128 230.597C85.3128 230.597 84.7617 229.53 86.0618 227.821C87.7623 225.586 98.7315 222.091 98.7315 222.091Z" fill="#346BEC"/>
<path d="M91.1848 224.876C88.8643 225.862 86.742 226.942 86.0704 227.82C84.7789 229.542 85.3213 230.597 85.3213 230.597L93.9314 230.382C93.0919 228.518 92.1835 226.68 91.1848 224.876Z" fill="white"/>
<path d="M86.3288 229.185L85.3171 230.597L108.435 230.025L108.427 228.26L86.3288 229.185Z" fill="white"/>
<path d="M97.1043 222.921L96.3682 219.228L101.401 219.891L99.9844 224.997L97.1043 222.921Z" fill="#346BEC"/>
<path d="M93.0703 224.036L94.4824 225.875" stroke="white" stroke-width="0.68" stroke-miterlimit="10" stroke-linecap="round"/>
<path d="M94.8054 223.309L96.2175 225.143" stroke="white" stroke-width="0.68" stroke-miterlimit="10" stroke-linecap="round"/>
<path d="M96.635 222.642L98.0471 224.476" stroke="white" stroke-width="0.68" stroke-miterlimit="10" stroke-linecap="round"/>
<path d="M108.426 228.613L85.2007 229.642V229.995L108.482 229.172L108.426 228.613Z" fill="#03324D"/>
<path d="M56.8995 113.087C56.8995 113.087 52.4395 162.509 64.5796 214.07L76.5347 214.427C76.5347 214.427 74.6964 167.145 75.8201 130.574L80.4609 130.931C80.4609 130.931 90.7025 190.918 96.3292 215.685L107.746 216.218C107.746 216.218 101.172 135.038 98.9338 111.972C96.6951 88.9058 56.8995 113.087 56.8995 113.087Z" fill="#1B2E35"/>
<path opacity="0.1" d="M75.8115 130.57L76.1344 130.596C69.7242 129.653 59.7753 127.053 56.2366 126.106C55.7329 144.161 56.2366 178.627 64.5711 214.066L76.5262 214.423C76.5262 214.423 74.6879 167.146 75.8115 130.57Z" fill="#101F29"/>
<path opacity="0.1" d="M99.5882 118.985C99.3428 116.29 99.1233 113.918 98.9295 111.968C96.678 88.897 56.8996 113.083 56.8996 113.083C56.8996 113.083 56.6369 116.014 56.4131 121.18C77.3312 123.432 93.0489 120.543 99.5882 118.985Z" fill="#101F29"/>
<path d="M85.0242 14.2094C83.6724 14.98 80.9172 16.9388 80.3576 18.5747C80.1383 18.5312 79.939 18.418 79.7893 18.252C79.6396 18.086 79.5475 17.876 79.5267 17.6535C79.5169 16.6059 79.7622 15.5716 80.2413 14.6399C80.2413 14.6399 72.2469 13.7187 72.4923 12.961C72.7377 12.2033 76.9092 12.7673 76.9092 12.7673C76.9092 12.7673 71.1061 11.7642 71.5968 11.1098C71.7863 10.8558 72.4579 11.4585 76.0913 11.1658C76.0913 11.1658 70.9941 9.87427 71.8681 9.40072C72.9615 8.79802 76.0741 9.40072 76.0741 9.40072C76.0741 9.40072 72.8453 8.02311 73.5729 7.67871C74.1024 7.42041 81.2272 8.2685 84.3612 8.21684C84.6109 9.06923 85.3213 14.2094 85.0242 14.2094Z" fill="#FFBFA0"/>
<path d="M83.1301 12.0137C83.122 11.9961 83.1084 11.9815 83.0913 11.9722C83.0743 11.9629 83.0547 11.9594 83.0354 11.9621C80.8398 12.2936 80.164 14.5709 80.1553 14.5967C80.1529 14.6181 80.1583 14.6397 80.1703 14.6575C80.1824 14.6753 80.2005 14.6883 80.2212 14.694C80.242 14.6997 80.2641 14.6978 80.2836 14.6887C80.3031 14.6795 80.3187 14.6637 80.3276 14.6441C80.3276 14.6226 80.9776 12.4528 83.0612 12.1386C83.0845 12.1344 83.1053 12.1212 83.1189 12.1019C83.1326 12.0825 83.1382 12.0586 83.1344 12.0353L83.1301 12.0137Z" fill="#FFBFA0"/>
<path d="M43.2095 114.159L33.4199 120.647C33.4199 120.647 33.2477 121.254 32.9894 122.175C32.292 122.524 28.4174 124.53 29.2785 125.094C29.7994 125.447 31.1985 125.137 32.292 124.81C30.9574 129.911 29.3818 136.864 33.2262 128.211C33.2262 128.211 30.1481 145 35.0989 128.547C35.0989 128.547 32.5546 145.074 37.0404 128.947C37.0404 128.947 34.7674 141.591 38.6462 129.55C43.5841 114.185 43.2095 114.159 43.2095 114.159Z" fill="#FFBFA0"/>
<path d="M43.2096 114.159L33.42 120.647C33.42 120.647 33.2478 121.254 32.9895 122.175L39.912 125.559C43.5153 114.185 43.2096 114.159 43.2096 114.159Z" fill="#FF9A71"/>
<path d="M100.273 59.7134C100.273 59.7134 127.14 17.7049 123.3 10.705C119.46 3.70499 84.3828 7.47189 84.3828 7.47189V15.0143L107.225 18.8888L91.7014 42.9712C81.8357 41.535 71.7696 42.4827 62.3454 45.735C61.2638 46.0098 60.2035 46.3623 59.1726 46.7897C50.3731 50.5609 32.292 121.116 32.292 121.116L41.6124 124.887C41.6124 124.887 48.1991 107.146 54.4241 90.0639C53.8731 99.5349 53.7483 109.518 54.7729 117.345C54.7729 117.345 77.8004 123.802 101.93 116.807C101.917 116.807 96.9837 79.6457 100.273 59.7134Z" fill="#346BEC"/>
<path d="M54.1917 110.896C54.3165 113.156 54.5016 115.326 54.7642 117.354C54.7642 117.354 77.7918 123.811 101.922 116.815C101.922 116.815 100.604 106.914 99.769 94.5627C86.3803 103.392 70.4259 108.093 54.1917 110.896Z" fill="#346BEC"/>
<path opacity="0.1" d="M92.9929 6.79175C87.9775 7.08879 84.3828 7.47194 84.3828 7.47194V15.0144L91.9769 16.3059C92.2309 13.1244 92.6312 9.96025 92.9929 6.79175Z" fill="#101F29"/>
<path opacity="0.1" d="M41.6038 124.883C41.6038 124.883 48.1905 107.142 54.4155 90.0596C54.0453 96.4181 55.8792 66.2915 57.4291 48.219C48.2206 58.9557 32.292 121.116 32.292 121.116L41.6038 124.883Z" fill="#346BEC"/>
<path opacity="0.1" d="M34.1044 114.159C32.9549 118.421 32.2791 121.047 32.2791 121.047L41.5994 124.818C41.5994 124.818 42.5293 122.317 44.0189 118.288L34.1044 114.159Z" fill="#101F29"/>
<path d="M21.8395 32.0581C21.8395 32.0581 44.273 33.7801 44.6561 26.3539C45.0393 18.9277 36.976 19.9997 36.976 19.9997C36.976 19.9997 37.2084 11.9622 29.9415 12.4271C22.6747 12.8921 24.3967 19.4831 24.3967 19.4831C24.3967 19.4831 18.516 16.1122 17.3623 23.4997C17.3623 23.4997 10.2202 20.9167 11.0726 28.0372C11.4428 31.1411 21.8395 32.0581 21.8395 32.0581Z" fill="#56CC95"/>
<path d="M77.2408 50.8407C75.2238 51.0086 73.2186 50.4004 71.6346 49.1404C70.0506 47.8804 69.007 46.0635 68.7169 44.0603C68.2864 41.0167 67.886 38.2227 67.886 38.2227C67.886 38.2227 61.4285 38.1969 60.3866 31.8943C59.3448 25.5918 58.2341 10.9288 58.2341 10.9288C61.5897 8.84306 65.4412 7.69073 69.3909 7.59084C73.3406 7.49094 77.2454 8.44709 80.7021 10.3606L81.7482 10.9374L84.4776 42.2307C84.5686 43.2714 84.4535 44.3198 84.1389 45.3159C83.8243 46.3121 83.3165 47.2364 82.6443 48.0361C81.9722 48.8358 81.149 49.4951 80.2218 49.9764C79.2946 50.4576 78.2816 50.7513 77.2408 50.8407Z" fill="#FFBFA0"/>
<path d="M67.8601 38.1325C70.7841 37.7461 73.5267 36.4977 75.7383 34.5464C75.7383 34.5464 74.4812 39.3852 68.0969 39.7727L67.8601 38.1325Z" fill="#FF9A71"/>
<path d="M81.9807 17.5975C82.0797 17.5329 86.1265 15.6559 86.6388 19.9954C87.1511 24.3349 82.6954 23.956 82.6695 23.8312C82.6437 23.7063 81.9807 17.5975 81.9807 17.5975Z" fill="#FFBFA0"/>
<path d="M83.8016 22.0315C83.8016 22.0315 83.8834 22.0745 84.0168 22.1176C84.2063 22.1733 84.4101 22.1532 84.5851 22.0616C85.0156 21.8377 85.3213 21.0671 85.2524 20.2793C85.2189 19.9068 85.1027 19.5465 84.9123 19.2246C84.8568 19.0931 84.7696 18.9774 84.6584 18.888C84.5472 18.7986 84.4155 18.7382 84.2751 18.7123C84.1844 18.6972 84.0913 18.715 84.0124 18.7623C83.9335 18.8096 83.874 18.8834 83.8446 18.9706C83.8016 19.0997 83.8446 19.1815 83.8188 19.1902C83.793 19.1988 83.7155 19.1299 83.7327 18.9448C83.7439 18.8343 83.7925 18.731 83.8705 18.652C83.9791 18.5478 84.1245 18.4905 84.2751 18.4927C84.4558 18.5079 84.6297 18.5688 84.7803 18.6697C84.931 18.7706 85.0534 18.9083 85.1361 19.0696C85.3653 19.4239 85.5043 19.8288 85.5408 20.2492C85.6183 21.1102 85.2653 21.997 84.6798 22.2553C84.5671 22.3031 84.4451 22.3247 84.3229 22.3188C84.2006 22.3128 84.0813 22.2794 83.9738 22.2209C83.8231 22.1348 83.7887 22.0401 83.8016 22.0315Z" fill="#FF9A71"/>
<path d="M68.7255 26.3278C68.1852 26.2831 67.6414 26.3063 67.1068 26.3967C66.8571 26.4268 66.616 26.4311 66.5342 26.2718C66.4576 26.0236 66.4576 25.7581 66.5342 25.5098L66.8399 23.4865C67.2489 20.6107 67.4856 18.2688 67.3694 18.2516C67.2532 18.2343 66.827 20.5547 66.4223 23.4176C66.3276 24.1265 66.2372 24.8024 66.1511 25.4453C66.0647 25.7743 66.0967 26.1233 66.2415 26.4311C66.2963 26.5093 66.3682 26.574 66.4517 26.6202C66.5353 26.6665 66.6283 26.6931 66.7236 26.698C66.868 26.7047 67.0127 26.6931 67.1541 26.6636C67.69 26.6183 68.2179 26.5055 68.7255 26.3278Z" fill="#1B2E35"/>
<path d="M68.265 30.999C68.463 31.111 69.0313 29.4449 70.4433 29.0101C71.7779 28.6011 73.1383 29.5138 73.1986 29.3674C73.2588 29.2211 72.6604 28.9369 72.0792 28.7001C71.5198 28.432 70.889 28.3505 70.2797 28.4677C69.7065 28.6247 69.2038 28.9724 68.8548 29.4535C68.3554 30.1122 68.1315 30.9388 68.265 30.999Z" fill="#1B2E35"/>
<path d="M61.4714 19.7757C61.5532 19.6466 62.2678 20.2794 63.1934 20.2493C64.119 20.2192 64.9154 19.4529 65.0144 19.5777C65.1134 19.7025 64.7002 20.0599 64.67 20.09C64.3301 20.4858 63.8537 20.7394 63.3355 20.8003C63.0602 20.8146 62.7848 20.7731 62.5259 20.6784C62.267 20.5837 62.0299 20.4378 61.8287 20.2493C61.7125 20.1331 61.4197 19.8575 61.4714 19.7757Z" fill="#1B2E35"/>
<path d="M70.4905 18.7553C70.555 18.6176 71.3515 19.1471 72.2771 18.9878C73.2026 18.8285 73.8785 17.9632 73.9991 18.0751C74.1196 18.1871 73.7537 18.5961 73.7278 18.6305C73.4451 19.0673 73.0088 19.3822 72.5052 19.513C72.2346 19.5646 71.9563 19.561 71.6871 19.5026C71.4178 19.4442 71.1631 19.332 70.9382 19.1729C70.7789 19.0782 70.4517 18.8414 70.4905 18.7553Z" fill="#1B2E35"/>
<path d="M70.0428 14.8164C70.1677 15.0704 71.1277 14.8465 72.2857 14.868C73.4438 14.8895 74.4038 15.1048 74.533 14.868C74.5889 14.7475 74.4038 14.515 74.0034 14.2954C73.4724 14.0315 72.8882 13.892 72.2952 13.8876C71.7022 13.8831 71.1159 14.0137 70.5809 14.2696C70.1763 14.4677 69.9869 14.6958 70.0428 14.8164Z" fill="#1B2E35"/>
<path d="M61.1358 16.5554C61.3295 16.7578 61.9968 16.4607 62.7889 16.366C63.581 16.2713 64.2957 16.366 64.4334 16.1163C64.4894 15.9958 64.3602 15.7848 64.0417 15.6083C63.6143 15.3982 63.1342 15.3195 62.6621 15.3824C62.1901 15.4452 61.7473 15.6467 61.3898 15.9613C61.1358 16.2153 61.054 16.4564 61.1358 16.5554Z" fill="#1B2E35"/>
<path d="M54.5834 7.06726C54.4983 6.67816 54.5133 6.27384 54.627 5.89212C54.7407 5.51041 54.9494 5.16376 55.2334 4.88461C55.5275 4.62228 55.9048 4.47235 56.2987 4.46132C56.6926 4.45029 57.0777 4.57887 57.386 4.82434C57.2993 4.56503 57.2681 4.29039 57.2944 4.01824C57.3207 3.7461 57.4039 3.48252 57.5387 3.24463C57.6735 3.00674 57.8568 2.79985 58.0767 2.63738C58.2966 2.47492 58.5482 2.36051 58.8152 2.30159C59.8441 2.12939 60.8085 2.8225 61.8288 2.9947C62.8502 3.1031 63.8791 2.87645 64.7605 2.34895C65.6602 1.87539 66.4825 1.26408 67.4038 0.816358C69.3402 -0.12042 71.5677 -0.256682 73.6039 0.437082C75.64 1.13085 77.3209 2.59878 78.2826 4.52299C79.6257 3.94611 81.2961 4.49285 82.2561 5.58202C83.1913 6.72816 83.6656 8.18176 83.5864 9.65889C83.5519 10.6462 83.4075 11.6266 83.1559 12.582C83.1559 12.6638 83.1817 12.7413 83.186 12.8231C83.4787 16.3231 83.5003 20.4645 82.015 20.641C79.432 20.9467 79.5396 15.9873 79.5396 15.9873C76.2248 15.0832 76.9265 10.1841 76.0526 9.52973C75.1786 8.87537 73.3404 7.37722 67.012 11.467C64.5797 13.0685 61.1356 13.3827 59.2113 13.146H59.0434H58.9831H58.9272C58.3066 13.0563 57.7038 12.8704 57.1406 12.5949C56.4783 12.2996 55.9277 11.8003 55.5692 11.17C55.396 10.853 55.3189 10.4925 55.3471 10.1324C55.3754 9.77234 55.508 9.42829 55.7285 9.14228C55.1506 8.57864 54.7522 7.85671 54.5834 7.06726Z" fill="#1B2E35"/>
<path d="M84.7619 42.3857C84.8198 42.4578 84.8676 42.5375 84.9039 42.6225C85.0269 42.8527 85.1292 43.0933 85.2096 43.3415C85.4971 44.2503 85.5534 45.2166 85.3732 46.1526C85.0725 47.6293 84.3041 48.9697 83.1819 49.9755C81.6035 51.3339 79.6318 52.1516 77.5553 52.3088C75.4755 52.5444 73.3745 52.1149 71.5541 51.0819C70.246 50.3085 69.2166 49.1404 68.6137 47.7455C68.2409 46.8673 68.0929 45.91 68.1832 44.9602C68.2106 44.7022 68.261 44.4472 68.3339 44.1982C68.3519 44.1083 68.3824 44.0214 68.4243 43.9399C68.4587 43.9399 68.3425 44.3058 68.2995 44.9645C68.2526 45.8983 68.4251 46.8301 68.8031 47.6852C69.4169 49.0312 70.4319 50.1545 71.709 50.9011C73.4768 51.8878 75.5092 52.2958 77.5208 52.0678C79.5302 51.915 81.4397 51.1298 82.9753 49.8248C84.0735 48.8505 84.8372 47.5552 85.1579 46.1225C85.3517 45.2085 85.3281 44.2619 85.0891 43.3587C84.9169 42.7301 84.7274 42.3987 84.7619 42.3857Z" fill="#1B2E35"/>
<path d="M74.0507 20.6152C74.0507 20.6152 73.1122 24.3606 74.7179 24.3606C76.3237 24.3606 74.0507 20.6152 74.0507 20.6152Z" fill="white"/>
<path d="M55.2663 82.9419C55.5423 78.9999 55.7197 75.8009 55.6627 75.7969C55.6056 75.7929 55.3356 78.9854 55.0597 82.9275C54.7838 86.8695 54.6063 90.0684 54.6634 90.0724C54.7204 90.0764 54.9904 86.884 55.2663 82.9419Z" fill="#1B2E35"/>
<path d="M112.254 19.1601C110.594 19.3883 108.908 19.3388 107.264 19.0137C107.264 18.9534 108.383 19.0481 109.757 19.0869C111.13 19.1256 112.249 19.0998 112.254 19.1601Z" fill="#1B2E35"/>
<path d="M112.934 17.537C112.683 17.6933 112.412 17.8149 112.129 17.8986C110.795 18.3875 109.408 18.7142 107.996 18.8716C107.712 18.9209 107.422 18.9325 107.135 18.906C107.135 18.8457 108.461 18.6864 110.067 18.3076C111.673 17.9288 112.912 17.481 112.934 17.537Z" fill="#1B2E35"/>
<path d="M92.9928 100.938C92.9197 100.994 92.8419 101.043 92.7604 101.085L92.0802 101.481C91.4947 101.83 90.6423 102.342 89.6048 102.966C88.5673 103.59 87.3274 104.365 85.924 105.157C84.4082 106.031 82.8246 106.781 81.1885 107.4C79.5361 108.032 77.7904 108.386 76.0224 108.446C75.25 108.453 74.481 108.344 73.7408 108.124C73.0951 107.926 72.4921 107.609 71.9628 107.189C71.1852 106.589 70.6245 105.752 70.3656 104.804C70.3009 104.548 70.2662 104.285 70.2623 104.021C70.2544 103.929 70.2544 103.837 70.2623 103.745C70.2777 104.096 70.3296 104.443 70.4173 104.783C70.6953 105.701 71.2575 106.508 72.0231 107.086C72.5444 107.488 73.1355 107.79 73.7666 107.977C74.4938 108.188 75.2482 108.289 76.0052 108.279C77.7456 108.206 79.4626 107.851 81.0894 107.228C82.7233 106.612 84.3066 105.869 85.825 105.007C87.2284 104.223 88.4726 103.47 89.523 102.854C90.5734 102.239 91.4301 101.744 92.0285 101.416L92.7259 101.05C92.8114 101.005 92.9007 100.968 92.9928 100.938Z" fill="#1B2E35"/>
<path d="M92.9241 91.1057C92.8961 91.3039 92.8529 91.4996 92.7949 91.6912C92.7417 91.9196 92.6771 92.1452 92.6012 92.3671C92.5151 92.6254 92.429 92.9267 92.2912 93.2281C92.1535 93.5294 92.0286 93.8997 91.8607 94.2656C91.6928 94.6315 91.4862 95.019 91.2709 95.4194C90.2936 97.1503 89.0235 98.6987 87.5169 99.9956C87.1639 100.288 86.8324 100.568 86.501 100.801C86.1695 101.033 85.8595 101.253 85.5711 101.438C85.2826 101.623 85.0071 101.778 84.7703 101.911C84.5678 102.029 84.3595 102.137 84.1461 102.234C83.9703 102.328 83.7875 102.409 83.5994 102.475C83.7637 102.362 83.9364 102.261 84.116 102.174C84.2839 102.084 84.4905 101.972 84.723 101.825C84.9554 101.679 85.2267 101.532 85.5065 101.33C85.7863 101.128 86.1006 100.93 86.4192 100.68C86.7377 100.43 87.0692 100.159 87.4179 99.8708C88.8973 98.5733 90.1539 97.0419 91.1375 95.3376C91.357 94.9415 91.568 94.567 91.7359 94.201C91.9038 93.8351 92.0631 93.495 92.1965 93.1807C92.33 92.8665 92.4333 92.5737 92.528 92.3197C92.6227 92.0657 92.6959 91.8419 92.7519 91.6568C92.7957 91.4691 92.8532 91.2849 92.9241 91.1057Z" fill="#1B2E35"/>
<g opacity="0.2">
<path opacity="0.2" d="M84.6755 101.885C82.9793 102.85 80.6934 103.001 78.6485 103.056C78.2631 103.092 77.8747 103.041 77.5119 102.906C77.3317 102.836 77.1769 102.712 77.0678 102.553C76.9587 102.393 76.9004 102.204 76.9006 102.01C76.9437 101.55 77.4 101.253 77.8305 101.076C79.4793 100.396 81.3305 100.435 83.0611 99.9999C86.0101 99.2594 89.0193 97.1543 91.3182 95.1567C89.744 97.9536 87.4486 100.277 84.6712 101.885" fill="black"/>
</g>
<path d="M100.827 58.9571C102.31 56.6093 103.473 54.6813 103.425 54.6508C103.376 54.6203 102.135 56.4989 100.652 58.8468C99.1688 61.1946 98.0057 63.1226 98.0539 63.1531C98.1022 63.1836 99.3435 61.305 100.827 58.9571Z" fill="#1B2E35"/>
</svg>
