<svg width="25" height="24" viewBox="0 0 25 24" fill="none" xmlns="http://www.w3.org/2000/svg">
<g opacity="0.12">
<path d="M12.9966 24C19.624 24 24.9966 18.6274 24.9966 12C24.9966 5.37258 19.624 0 12.9966 0C6.36916 0 0.996582 5.37258 0.996582 12C0.996582 18.6274 6.36916 24 12.9966 24Z" fill="#818C99"/>
</g>
<path fill-rule="evenodd" clip-rule="evenodd" d="M11.7238 12L8.26019 8.5364C7.90871 8.18492 7.90871 7.61508 8.26019 7.2636C8.61166 6.91213 9.18151 6.91213 9.53298 7.2636L12.9966 10.7272L16.4602 7.2636C16.8117 6.91213 17.3815 6.91213 17.733 7.2636C18.0845 7.61508 18.0845 8.18492 17.733 8.5364L14.2694 12L17.733 15.4636C18.0845 15.8151 18.0845 16.3849 17.733 16.7364C17.3815 17.0879 16.8117 17.0879 16.4602 16.7364L12.9966 13.2728L9.53298 16.7364C9.18151 17.0879 8.61166 17.0879 8.26019 16.7364C7.90871 16.3849 7.90871 15.8151 8.26019 15.4636L11.7238 12Z" fill="#818C99"/>
</svg>
