<svg width="25" height="24" viewBox="0 0 25 24" fill="none" xmlns="http://www.w3.org/2000/svg">
<path fill-rule="evenodd" clip-rule="evenodd" d="M19.8632 2.8743C18.8456 2.33004 17.8638 2.12216 15.92 2.10178L10.4064 2.1001C8.23848 2.1001 7.20435 2.2998 6.13013 2.8743C5.15847 3.39395 4.39053 4.16189 3.87088 5.13354C3.32662 6.15123 3.11874 7.13293 3.09836 9.07676L3.09668 14.5904C3.09668 16.7583 3.29638 17.7924 3.87088 18.8667C4.39053 19.8383 5.15847 20.6063 6.13013 21.1259C7.20435 21.7004 8.23848 21.9001 10.4064 21.9001H15.587C17.7549 21.9001 18.789 21.7004 19.8632 21.1259C20.8349 20.6063 21.6028 19.8383 22.1225 18.8667C22.697 17.7924 22.8967 16.7583 22.8967 14.5904V9.40981C22.8967 7.2419 22.697 6.20776 22.1225 5.13354C21.6028 4.16189 20.8349 3.39395 19.8632 2.8743ZM10.4064 3.9001H15.587L16.1491 3.90508C17.642 3.93372 18.3184 4.08938 19.0144 4.46156C19.6723 4.81345 20.1833 5.32445 20.5352 5.98242L20.6577 6.22859C20.9423 6.8488 21.0664 7.53039 21.0917 8.84764L21.0967 9.40981V14.5904L21.0917 15.1526C21.0907 15.2055 21.0895 15.2575 21.0882 15.3084L16.5793 11.3256C16.1975 10.9883 15.6122 11.0349 15.2885 11.4282L11.5394 15.9843L9.56748 14.3668C9.21205 14.0752 8.69402 14.0984 8.36604 14.4205L5.22515 17.5053C5.01819 16.9476 4.92339 16.285 4.90166 15.1526L4.89668 14.5904V9.40981C4.89668 7.71323 5.01315 6.9315 5.33563 6.22859L5.45814 5.98242C5.81003 5.32445 6.32103 4.81345 6.979 4.46156L7.22518 4.33905C7.84539 4.05451 8.52697 3.93035 9.84423 3.90508L10.4064 3.9001ZM16.0862 13.2917L20.7895 17.4463C20.7192 17.6461 20.635 17.8312 20.5352 18.0178C20.1833 18.6757 19.6723 19.1867 19.0144 19.5386L18.7682 19.6611C18.148 19.9457 17.4664 20.0698 16.1491 20.0951L15.587 20.1001H10.4064L9.84423 20.0951C8.35134 20.0665 7.67493 19.9108 6.979 19.5386C6.70936 19.3944 6.46439 19.2235 6.24495 19.0267L9.05072 16.271L11.0925 17.9459C11.4764 18.2608 12.0428 18.2054 12.3583 17.822L16.0862 13.2917ZM10.9967 8.5001C10.9967 9.32853 10.3251 10.0001 9.49668 10.0001C8.66825 10.0001 7.99668 9.32853 7.99668 8.5001C7.99668 7.67167 8.66825 7.0001 9.49668 7.0001C10.3251 7.0001 10.9967 7.67167 10.9967 8.5001Z" fill="#7A8E9C"/>
</svg>
