<svg width="17" height="16" viewBox="0 0 17 16" fill="none" xmlns="http://www.w3.org/2000/svg">
<path d="M8.99658 16C13.4149 16 16.9966 12.4183 16.9966 8C16.9966 3.58172 13.4149 0 8.99658 0C4.5783 0 0.996582 3.58172 0.996582 8C0.996582 12.4183 4.5783 16 8.99658 16Z" fill="#C4CAD6"/>
<path d="M6.53249 11.7427L12.7353 5.53298C13.0868 5.18151 13.0868 4.61166 12.7353 4.26019C12.3838 3.90871 11.814 3.90871 11.4625 4.26019L5.2597 10.47C4.90823 10.8214 4.90823 11.3913 5.2597 11.7427C5.61117 12.0942 6.18102 12.0942 6.53249 11.7427Z" fill="#353C44"/>
<path d="M12.7353 10.47L6.53249 4.26019C6.18102 3.90871 5.61117 3.90871 5.2597 4.26019C4.90823 4.61166 4.90823 5.18151 5.2597 5.53298L11.4625 11.7427C11.814 12.0942 12.3838 12.0942 12.7353 11.7427C13.0868 11.3913 13.0868 10.8214 12.7353 10.47Z" fill="#353C44"/>
</svg>
