<svg width="24" height="24" viewBox="0 0 24 24" fill="none" xmlns="http://www.w3.org/2000/svg">
<path fill-rule="evenodd" clip-rule="evenodd" d="M0.634638 19.3322C0.347477 19.0513 0.227707 18.6409 0.318687 18.2496C1.84449 11.6878 5.82806 8.17394 12.0969 7.87139V4.40212C12.0969 3.67468 12.6866 3.08496 13.414 3.08496C13.7266 3.08496 14.0289 3.1961 14.2671 3.39853L23.2058 10.9964C23.7601 11.4676 23.8275 12.2988 23.3563 12.8531C23.3103 12.9073 23.26 12.9576 23.2058 13.0036L14.2671 20.6015C13.7128 21.0727 12.8815 21.0053 12.4104 20.451C12.208 20.2129 12.0969 19.9105 12.0969 19.5979V16.1615C7.45033 16.282 4.18125 17.3512 2.26092 19.3143C1.817 19.7683 1.08873 19.7764 0.634638 19.3322ZM13.8969 9.65003H12.9969C7.73482 9.65003 4.328 11.9583 2.6386 16.7053C5.09324 15.1239 8.55182 14.35 12.9969 14.35H13.8969V18.5538L21.6072 12L13.8969 5.44623V9.65003Z" fill="#7A8E9C"/>
</svg>
