<svg width="49" height="48" viewBox="0 0 49 48" fill="none" xmlns="http://www.w3.org/2000/svg">
<path fill-rule="evenodd" clip-rule="evenodd" d="M24.9966 41C34.3854 41 41.9966 33.3888 41.9966 24C41.9966 14.6112 34.3854 7 24.9966 7C15.6077 7 7.99658 14.6112 7.99658 24C7.99658 33.3888 15.6077 41 24.9966 41ZM25.9966 20.4142L29.7895 24.2071C30.18 24.5976 30.8132 24.5976 31.2037 24.2071C31.5942 23.8166 31.5942 23.1834 31.2037 22.7929L25.7037 17.2929C25.5206 17.1098 25.2843 17.0126 25.0446 17.0011C25.0286 17.0004 25.0126 17 24.9966 17M25.9966 20.4142V30.5C25.9966 31.0523 25.5489 31.5 24.9966 31.5C24.4443 31.5 23.9966 31.0523 23.9966 30.5V20.4142L20.2037 24.2071C19.8132 24.5976 19.18 24.5976 18.7895 24.2071C18.399 23.8166 18.399 23.1834 18.7895 22.7929L24.2895 17.2929C24.3854 17.197 24.4959 17.1247 24.6138 17.0759C24.7308 17.0273 24.8591 17.0004 24.9936 17" fill="#3F8AE0"/>
<path d="M19.4966 23.5L24.9966 18L30.4966 23.5" stroke="white" stroke-width="2" stroke-linecap="round" stroke-linejoin="round"/>
<path d="M24.9966 18V30.5" stroke="white" stroke-width="2" stroke-linecap="round" stroke-linejoin="round"/>
</svg>
